# xmcd
#
# Track frame offsets:
#	150
#	15866
#	36650
#	55765
#	75375
#	94051
#	112530
#	129966
#	150317
#	170757
#	189873
#	206377
#
# Disc length: 2959 seconds
# Revision: 0
# Processed by: cddbd v1.5.2PL0 Copyright (c) Steve Scherf et al.
# Submitted via: dBpowerAMP V12.0
#
DISCID=7e0b8d0c
DTITLE=Boyz II Men - Twenty [CD1 of 2)
DYEAR=2011
DGENRE=R&B
TTITLE0=Believe
TTITLE1=So Amazing
TTITLE2=Put Some Music On
TTITLE3=Slowly
TTITLE4=More Than You'll Ever Know
TTITLE5=I Shoulda Lied
TTITLE6=Benefit Of A Fool
TTITLE7=Refuse To Be The Reason
TTITLE8=One More Dance
TTITLE9=Will You Be There
TTITLE10=Flow
TTITLE11=One Up For Love
EXTD=
EXTT0=
EXTT1=
EXTT2=
EXTT3=
EXTT4=
EXTT5=
EXTT6=
EXTT7=
EXTT8=
EXTT9=
EXTT10=
EXTT11=
PLAYORDER=
